<svg width="44" height="44" viewBox="0 0 44 44" fill="none" xmlns="http://www.w3.org/2000/svg">
<rect width="43.098" height="43.098" rx="2.45179" fill="#3BB76F"/>
<path d="M22.3168 10.6077C22.5364 10.6553 22.7524 10.6955 22.9683 10.7504C24.0678 11.0078 25.0471 11.6313 25.7454 12.5186C26.4438 13.4058 26.8198 14.5042 26.8117 15.6333C26.8117 16.4752 26.8117 17.3134 26.8117 18.1553C26.8416 19.4602 26.3586 20.7247 25.4664 21.6774C24.5742 22.63 23.344 23.1948 22.0399 23.2504C20.7359 23.306 19.4621 22.848 18.4921 21.9747C17.522 21.1014 16.9331 19.8826 16.8519 18.5799C16.7725 17.3753 16.7847 16.1663 16.8885 14.9635C17.0136 13.88 17.496 12.869 18.2596 12.0902C19.0232 11.3114 20.0244 10.8091 21.1052 10.6626C21.1769 10.6482 21.2478 10.6298 21.3175 10.6077H22.3168Z" fill="white"/>
<path d="M21.8192 36.1934C17.1157 36.0067 13.4151 34.0338 10.8675 30.0074C10.8266 29.9468 10.8047 29.8754 10.8047 29.8024C10.8047 29.7293 10.8266 29.6579 10.8675 29.5974C12.4545 26.9497 14.9536 24.9726 17.8953 24.0373C17.9642 24.0107 18.0395 24.0056 18.1114 24.0226C18.1833 24.0396 18.2483 24.0779 18.298 24.1325C19.3442 25.0747 20.4642 25.9315 21.6472 26.6947C21.6991 26.7363 21.7637 26.759 21.8302 26.759C21.8968 26.759 21.9613 26.7363 22.0132 26.6947C23.1918 25.962 24.2953 25.1148 25.3076 24.1654C25.3644 24.1006 25.4402 24.0551 25.5242 24.0354C25.6082 24.0157 25.6963 24.0228 25.7761 24.0556C28.6793 24.9896 31.1485 26.9389 32.7308 29.5462C32.7883 29.6206 32.8196 29.712 32.8196 29.806C32.8196 29.9001 32.7883 29.9915 32.7308 30.0659C31.0335 32.8517 28.3297 34.8779 25.1794 35.7248C24.0847 36.0275 22.955 36.185 21.8192 36.1934V36.1934ZM26.8156 28.9093C26.8156 28.7006 26.8156 28.492 26.8156 28.2833C26.8156 28.0747 26.7424 27.9795 26.5228 27.9832C26.1934 27.9832 25.8603 27.9832 25.5272 27.9832C25.3039 27.9832 25.2087 28.0747 25.2124 28.298C25.2124 28.664 25.2124 29.0301 25.2124 29.3961C25.2124 29.7621 25.1941 29.7841 24.8464 29.7841H23.7153C23.5067 29.7841 23.4115 29.8683 23.4152 30.0806C23.4152 30.4149 23.4152 30.748 23.4152 31.0799C23.4152 31.3068 23.5103 31.391 23.7299 31.3837C24.1216 31.3837 24.5133 31.3837 24.9049 31.3837C25.1245 31.3837 25.2234 31.4642 25.2197 31.6911C25.2197 32.0901 25.2197 32.4891 25.2197 32.8881C25.2197 33.104 25.3112 33.1919 25.5235 33.1846C25.8639 33.1846 26.2043 33.1846 26.5448 33.1846C26.7534 33.1846 26.8266 33.1004 26.8229 32.9027C26.8229 32.5111 26.8229 32.1194 26.8229 31.7277C26.8229 31.4605 26.8925 31.3873 27.1597 31.3837H28.2724C28.5653 31.3837 28.6092 31.3361 28.6129 31.0506V30.1318C28.6129 29.8427 28.558 29.7877 28.2468 29.7877H27.1085C26.8998 29.7877 26.8046 29.6962 26.812 29.4839C26.8193 29.2716 26.8156 29.1033 26.8156 28.9093Z" fill="white"/>
<path d="M26.1523 26.8881L30.0273 29.5131L26.7773 34.1381L21.7773 33.1381V29.5131L26.1523 26.8881Z" fill="white"/>
</svg>
