<svg width="44" height="44" viewBox="0 0 44 44" fill="none" xmlns="http://www.w3.org/2000/svg">
<rect width="43.1" height="43.1" rx="2.45179" fill="#38BDF8"/>
<path d="M29.8143 13.2669C25.2289 8.68153 17.7936 8.68153 13.2082 13.2669C8.62201 17.8531 8.62201 25.2876 13.2082 29.873C17.7936 34.4592 25.2289 34.4592 29.8143 29.873C34.3997 25.2876 34.3997 17.8531 29.8143 13.2669V13.2669ZM14.4658 21.3935C14.4658 20.2721 14.8983 19.2192 15.6847 18.4266C16.0687 18.0362 16.5268 17.7263 17.0321 17.5152C17.5374 17.3041 18.0797 17.196 18.6273 17.1971H23.2346V15.6988L27.7743 18.3416L23.2346 20.9844V19.4861H18.6273C17.5842 19.4861 16.7364 20.3417 16.7364 21.3935C16.7364 21.4447 16.738 21.496 16.7419 21.5473L14.6862 22.7446C14.5394 22.3093 14.465 21.8529 14.4658 21.3935V21.3935ZM27.3371 24.7111C26.9524 25.1015 26.4937 25.4114 25.988 25.6226C25.4822 25.8338 24.9394 25.9422 24.3913 25.9413H19.7926V27.4412L15.2486 24.796L19.7926 22.1509V23.6507H24.3909C25.4352 23.6507 26.2845 22.7932 26.2845 21.741C26.2845 21.6921 26.2822 21.6432 26.2787 21.5958L28.3395 20.3958C28.4823 20.824 28.5567 21.2764 28.5567 21.7414C28.5567 22.8636 28.1234 23.9177 27.3371 24.7111Z" fill="white"/>
</svg>
